# xmcd
#
# Track frame offsets: 
#        150
#        11607
#        25365
#        37412
#        47197
#        59880
#        72505
#        84150
#        97290
#        108850
#
# Disc length: 1628 seconds
#
# Revision: 4
# Processed by: cddbd v1.5.2PL0 Copyright (c) Steve Scherf et al.
# Submitted via: ExactAudioCopy v0.99pb5
#
DISCID=91065a0a
DTITLE=John Lee Hooker - High Profile
DYEAR=1998
DGENRE=
TTITLE0=Boom Boom
TTITLE1=Road is so Rough
TTITLE2=Whiskey and Wimmen
TTITLE3=Onions
TTITLE4=I'm So Excited
TTITLE5=Hobo Blues
TTITLE6=Little Wheel
TTITLE7=Baby Lee
TTITLE8=Hard Headed Woman
TTITLE9=Trouble Blues
EXTD=
EXTT0=
EXTT1=
EXTT2=
EXTT3=
EXTT4=
EXTT5=
EXTT6=
EXTT7=
EXTT8=
EXTT9=
PLAYORDER=
